<svg xmlns="http://www.w3.org/2000/svg" width="7.137" height="9.516" viewBox="0 0 7.137 9.516"><defs><style>.a{fill:#fff;}</style></defs><path class="a" d="M8.379,4.758A2.379,2.379,0,1,0,6,2.379,2.379,2.379,0,0,0,8.379,4.758Zm0-3.965A1.586,1.586,0,1,1,6.793,2.379,1.586,1.586,0,0,1,8.379.793Z" transform="translate(-4.811)"/><path class="a" d="M6.568,14A3.572,3.572,0,0,0,3,17.568a.4.4,0,1,0,.793,0,2.775,2.775,0,1,1,5.551,0,.4.4,0,1,0,.793,0A3.572,3.572,0,0,0,6.568,14Z" transform="translate(-3 -8.449)"/></svg>